<svg width="601" height="766" viewBox="0 0 601 766" fill="none" xmlns="http://www.w3.org/2000/svg">
<path d="M299.334 0.80014C299.334 5.06681 276.267 104 270.534 124.8L267.067 136.933L271.867 143.2C274.534 146.667 278 153.733 279.6 159.067C282.267 167.6 282.667 171.333 282.534 191.333C282.4 211.067 282 215.6 279.067 226.667C277.2 233.6 273.867 243.333 271.734 248.133C267.734 256.667 267.734 256.933 270.134 259.867C276.4 267.6 270.934 276 254.4 283.733C243.6 288.8 230 288.8 219.067 283.733C209.067 279.067 200.267 270.667 195.734 261.467C192.267 254.667 192 252.8 192 238.667V223.333L204.267 187.333C211.067 167.467 217.467 146.267 218.534 140.133C225.6 102.533 214.534 71.2001 187.734 53.3335C182.134 49.6001 177.467 46.8001 177.2 47.0668C176.934 47.3335 178.667 52.1335 181.334 57.6001C183.867 63.0668 187.067 72.0001 188.534 77.4668C196.534 107.333 192.4 127.867 168.267 180C151.2 216.933 148.534 225.6 147.734 246.667C146.8 266.933 148.4 275.067 155.6 289.467C164.934 308.133 184.267 324.533 206 332.133C213.334 334.8 217.467 335.2 232.667 335.333C248.134 335.333 252 334.933 260.4 332.133C269.6 329.067 270.134 329.067 272.534 331.333C276.267 334.533 280.534 344.4 282.134 352.933C283.467 360 283.334 360.533 280.134 363.867C275.6 368.533 275.6 374.533 280 379.733C282.934 383.333 283.334 384.933 283.334 394.8C283.334 400.933 283.867 406.667 284.4 407.333C285.734 409.2 316.134 433.333 317.2 433.333C317.6 433.333 318 422 318 408C318 382.933 318 382.8 321.334 379.467C323.334 377.333 324.667 374.667 324.667 372.133C324.667 369.867 323.2 366.533 321.334 364.267C319.467 362 318 358.8 318 357.067C318 351.867 322 340 325.6 334.267C329.2 328.533 327.867 328.533 345.2 333.2C375.734 341.333 406.267 332.933 429.467 310C446.267 293.467 454 275.467 454 252.667C454 231.333 449.067 214.933 431.334 177.467C424.934 163.867 418.134 148.4 416.267 143.2C405.6 113.467 406.134 88.2668 418.134 60.2668C421.067 53.3335 423.2 47.4668 422.934 47.2001C421.734 45.8668 405.6 58.0001 398.934 65.3335C384.667 80.6668 378.534 99.6001 379.734 123.333C380.667 139.867 384.4 154.267 396.534 188C401.6 202.4 406.8 219.067 408.134 225.333C412.934 249.333 406.534 268.133 389.6 279.333C380.267 285.333 368.934 288.533 359.6 287.6C350.534 286.667 336.8 280 332.134 274.533C328 269.6 327.6 262.8 331.2 259.467C333.734 257.2 333.6 256.933 329.734 248.267C322.534 232.533 319.2 216.267 318.4 194.667C318 183.067 318.267 172.133 319.2 167.467C320.934 157.867 326.267 145.867 330.8 141.2L334.267 137.6L331.467 128.4C328 116.933 316.267 67.6001 307.867 28.9335C304.267 13.0668 300.934 0.00014016 300.4 0.00014016C299.867 0.00014016 299.334 0.40014 299.334 0.80014Z" fill="black"/>
<path d="M174.667 120.267C103.333 145.067 53.4667 170.933 11.3333 204.933L0 214V345.333V476.667L3.6 495.467C19.3333 577.067 65.3333 635.867 160 695.6C194.267 717.2 246.133 743.867 282.667 758.667L299.867 765.6L310.667 761.333C345.2 747.467 395.867 722 428.133 702.533C537.2 636.8 586.667 572.4 598.667 480.933C600.4 467.733 600.667 444.933 600.667 340V214.667L591.067 206.667C580.133 197.6 551.6 178 536.933 169.467C522.533 161.067 492.8 146.533 474.533 138.8C459.067 132.267 421.6 118.667 419.333 118.667C418.667 118.667 420.533 122.8 423.333 128C426.267 133.067 430.133 140.4 431.867 144.4L434.933 151.467L454.8 159.333C493.467 174.533 532.667 195.733 560.4 216.667L574.667 227.333L575.067 335.333C575.333 400.4 574.933 451.333 574 463.333C568 551.6 523.067 613.867 419.733 677.067C389.067 695.867 337.6 722.133 308.933 733.467L299.2 737.333L280.267 729.067C253.333 717.333 210 695.2 186.667 681.2C128.267 646.267 84.4 608 61.2 571.733C46.8 549.333 35.6 521.867 30 495.333C26.1333 476.667 25.0667 442 25.2 324.667L25.3333 227.333L39.6 216.667C68.5333 194.933 102.667 176.133 143.067 159.6L163.467 151.333L172 134.933C176.667 126 180.133 118.667 179.6 118.8C179.067 118.8 176.933 119.467 174.667 120.267Z" fill="black"/>
<path d="M215.2 410.134C199.467 423.867 161.2 457.067 130 484C98.8003 511.067 70.9337 535.2 68.0003 537.867L62.667 542.534H82.667L102.667 542.667L133.467 516.934C150.4 502.934 182 476 203.867 457.334C225.734 438.667 244.134 423.334 244.8 423.334C246.267 423.334 385.334 535.6 401.334 549.867L406.667 554.534L390.4 554.667H374.134L349.734 577.6C336.267 590.134 309.2 615.734 289.334 634.534C269.6 653.2 247.467 674.134 240.267 680.934C232.4 688.4 227.467 693.867 228.134 694.8C228.667 695.6 236 699.6 244.4 703.6L259.734 710.8L264.534 706.267C267.2 703.867 282 689.867 297.334 675.2C312.8 660.534 341.734 633.067 361.734 614.267L398.134 580H441.734L485.334 579.867L480.667 575.867C473.6 569.734 412.534 520.267 356 474.667C328.134 452.267 291.867 422.934 275.334 409.6C258.8 396.267 244.934 385.334 244.534 385.334C244.134 385.334 230.934 396.534 215.2 410.134Z" fill="black"/>
<path d="M370 438.534V474.534L387.067 488.534L404 502.534L404.4 454.267C404.533 427.734 404.4 405.2 404 404.4C403.6 403.067 398.933 402.667 386.667 402.667H370V438.534Z" fill="black"/>
<path d="M211.866 504.534C211.466 505.6 211.333 512.534 211.6 520.134L212 534L227.066 534.4L242 534.8V518.667V502.667H227.333C216 502.667 212.4 503.067 211.866 504.534Z" fill="black"/>
<path d="M251.333 518.667V534.667H266H280.666V518.667V502.667H266H251.333V518.667Z" fill="black"/>
<path d="M212.533 546.267C212.533 546.933 212.533 553.867 212.533 562V576.667L227.2 577.067L242 577.467V561.333V545.333H227.333C219.333 545.333 212.667 545.733 212.533 546.267Z" fill="black"/>
<path d="M251.333 561.333V577.333H266H280.666V561.333V545.333H266H251.333V561.333Z" fill="black"/>
</svg>
